<svg xmlns="http://www.w3.org/2000/svg" xmlns:xlink="http://www.w3.org/1999/xlink" width="500" zoomAndPan="magnify" viewBox="0 0 375 374.999991" height="500" preserveAspectRatio="xMidYMid meet" version="1.0"><defs><g/><clipPath id="033525a352"><path d="M 30.21875 30.21875 L 344.78125 30.21875 L 344.78125 344.78125 L 30.21875 344.78125 Z M 30.21875 30.21875 " clip-rule="nonzero"/></clipPath><clipPath id="ada210cdb8"><path d="M 187.5 344.78125 C 145.507812 344.78125 105.96875 328.4375 76.296875 298.703125 C 46.5625 269.03125 30.21875 229.492188 30.21875 187.5 C 30.21875 145.507812 46.5625 105.96875 76.296875 76.296875 C 105.96875 46.5625 145.507812 30.21875 187.5 30.21875 C 229.492188 30.21875 269.03125 46.5625 298.703125 76.296875 C 328.4375 106.03125 344.78125 145.507812 344.78125 187.5 C 344.78125 229.492188 328.4375 269.03125 298.703125 298.703125 C 269.03125 328.4375 229.492188 344.78125 187.5 344.78125 Z M 187.5 39.648438 C 148.023438 39.648438 110.871094 55.046875 82.960938 82.960938 C 55.046875 110.871094 39.648438 148.023438 39.648438 187.5 C 39.648438 226.976562 55.046875 264.128906 82.960938 292.039062 C 110.871094 319.953125 148.023438 335.351562 187.5 335.351562 C 226.976562 335.351562 264.128906 319.953125 292.039062 292.039062 C 319.953125 264.128906 335.351562 226.976562 335.351562 187.5 C 335.351562 148.023438 319.953125 110.871094 292.039062 82.960938 C 264.128906 55.046875 226.976562 39.648438 187.5 39.648438 Z M 187.5 39.648438 " clip-rule="nonzero"/></clipPath><clipPath id="b036ac0c97"><path d="M 131.214844 131.214844 L 243.785156 131.214844 L 243.785156 243.785156 L 131.214844 243.785156 Z M 131.214844 131.214844 " clip-rule="nonzero"/></clipPath><clipPath id="a375114aa9"><path d="M 187.5 243.785156 C 172.472656 243.785156 158.320312 237.9375 147.703125 227.296875 C 137.0625 216.679688 131.214844 202.527344 131.214844 187.5 C 131.214844 172.472656 137.0625 158.320312 147.703125 147.703125 C 158.320312 137.0625 172.472656 131.214844 187.5 131.214844 C 202.527344 131.214844 216.679688 137.0625 227.296875 147.703125 C 237.9375 158.34375 243.785156 172.472656 243.785156 187.5 C 243.785156 202.527344 237.9375 216.679688 227.296875 227.296875 C 216.679688 237.9375 202.527344 243.785156 187.5 243.785156 Z M 187.5 134.589844 C 173.371094 134.589844 160.078125 140.101562 150.089844 150.089844 C 140.101562 160.078125 134.589844 173.371094 134.589844 187.5 C 134.589844 201.628906 140.101562 214.921875 150.089844 224.910156 C 160.078125 234.898438 173.371094 240.410156 187.5 240.410156 C 201.628906 240.410156 214.921875 234.898438 224.910156 224.910156 C 234.898438 214.921875 240.410156 201.628906 240.410156 187.5 C 240.410156 173.371094 234.898438 160.078125 224.910156 150.089844 C 214.921875 140.101562 201.628906 134.589844 187.5 134.589844 Z M 187.5 134.589844 " clip-rule="nonzero"/></clipPath><clipPath id="6b04bf1910"><path d="M 148 150.761719 L 227.917969 150.761719 L 227.917969 223.953125 L 148 223.953125 Z M 148 150.761719 " clip-rule="nonzero"/></clipPath></defs><g fill="#f15a31" fill-opacity="1"><g transform="translate(129.198098, 120.775874)"><g><path d="M 12.3125 -7.125 C 10.394531 -5.925781 8.503906 -5.128906 6.640625 -4.734375 C 4.785156 -4.347656 2.796875 -4.367188 0.671875 -4.796875 L -2.375 -8.34375 L -1.921875 -8.828125 C 2.554688 -8.179688 6.300781 -8.800781 9.3125 -10.6875 C 11.226562 -11.882812 12.488281 -13.175781 13.09375 -14.5625 C 13.695312 -15.945312 13.613281 -17.257812 12.84375 -18.5 C 12.3125 -19.351562 11.6875 -19.9375 10.96875 -20.25 C 10.257812 -20.5625 9.273438 -20.628906 8.015625 -20.453125 C 6.753906 -20.273438 5.003906 -19.820312 2.765625 -19.09375 C -0.703125 -18.03125 -3.46875 -17.75 -5.53125 -18.25 C -7.59375 -18.757812 -9.347656 -20.164062 -10.796875 -22.46875 C -12.421875 -25.070312 -12.875 -27.65625 -12.15625 -30.21875 C -11.445312 -32.78125 -9.617188 -34.984375 -6.671875 -36.828125 C -4.921875 -37.929688 -3.078125 -38.71875 -1.140625 -39.1875 C 0.796875 -39.65625 2.554688 -39.738281 4.140625 -39.4375 L 5.953125 -35.296875 L 5.484375 -34.78125 C 4.148438 -35.164062 2.628906 -35.21875 0.921875 -34.9375 C -0.785156 -34.65625 -2.328125 -34.085938 -3.703125 -33.234375 C -5.585938 -32.046875 -6.796875 -30.796875 -7.328125 -29.484375 C -7.867188 -28.179688 -7.71875 -26.859375 -6.875 -25.515625 C -6.289062 -24.585938 -5.617188 -23.945312 -4.859375 -23.59375 C -4.097656 -23.25 -3.117188 -23.144531 -1.921875 -23.28125 C -0.734375 -23.414062 0.847656 -23.800781 2.828125 -24.4375 C 5.378906 -25.238281 7.503906 -25.675781 9.203125 -25.75 C 10.898438 -25.832031 12.34375 -25.539062 13.53125 -24.875 C 14.71875 -24.207031 15.773438 -23.128906 16.703125 -21.640625 C 18.378906 -18.972656 18.804688 -16.347656 17.984375 -13.765625 C 17.171875 -11.191406 15.28125 -8.976562 12.3125 -7.125 Z M 12.3125 -7.125 "/></g></g></g><g fill="#f15a31" fill-opacity="1"><g transform="translate(151.896049, 106.171521)"><g><path d="M 27.765625 -6.953125 L 22.171875 -5.546875 L 18.953125 -11.8125 L 18.125 -13.25 L 6.34375 -10.203125 L 6.265625 -8.640625 L 6.421875 -1.609375 L 1.375 -0.34375 L 1.96875 -7.5625 L 3.109375 -29.046875 L 3.109375 -36.109375 L 9.328125 -37.671875 L 12.59375 -31.421875 L 23.796875 -13.03125 Z M 15.75 -17.28125 L 7.203125 -31.875 L 6.546875 -14.875 Z M 15.75 -17.28125 "/></g></g></g><g fill="#f15a31" fill-opacity="1"><g transform="translate(180.12801, 99.360489)"><g><path d="M 24.109375 -3.234375 L 23.1875 1.21875 L 3.796875 0.203125 L 4.46875 -6.625 L 5.5625 -27.40625 L 5.59375 -34.03125 L 10.875 -33.75 L 10.265625 -27.15625 L 9.171875 -6.375 L 9.140625 -4.015625 Z M 24.109375 -3.234375 "/></g></g></g><g fill="#f15a31" fill-opacity="1"><g transform="translate(204.136959, 100.443636)"><g><path d="M 32.96875 -19.921875 L 32.4375 -19.96875 L 28.484375 -21.953125 L 24.140625 -23.4375 L 16.65625 -1.546875 L 14.75 5.046875 L 9.734375 3.328125 L 12.25 -3.046875 L 19.734375 -24.9375 L 15.40625 -26.421875 L 11.0625 -27.28125 L 10.640625 -27.5625 L 12.875 -31.828125 L 33.796875 -24.671875 Z M 32.96875 -19.921875 "/></g></g></g><g fill="#f15a31" fill-opacity="1"><g transform="translate(228.383971, 109.591395)"><g/></g></g><g fill="#f15a31" fill-opacity="1"><g transform="translate(237.977661, 115.00938)"><g><path d="M 17.796875 -1.734375 C 17.128906 -0.941406 16.269531 -0.609375 15.21875 -0.734375 C 14.21875 -0.503906 13.332031 -0.707031 12.5625 -1.34375 C 11.863281 -1.9375 11.53125 -2.722656 11.5625 -3.703125 C 11.226562 -4.773438 11.40625 -5.71875 12.09375 -6.53125 C 12.789062 -7.351562 13.679688 -7.703125 14.765625 -7.578125 C 15.765625 -7.804688 16.625 -7.613281 17.34375 -7 C 18.132812 -6.34375 18.488281 -5.46875 18.40625 -4.375 C 18.65625 -3.382812 18.453125 -2.503906 17.796875 -1.734375 Z M 17.796875 -1.734375 "/></g></g></g><g fill="#f15a31" fill-opacity="1"><g transform="translate(251.589864, 126.944989)"><g/></g></g><g fill="#f15a31" fill-opacity="1"><g transform="translate(259.164501, 134.106313)"><g><path d="M 37.140625 -2.8125 C 39.191406 1.144531 39.472656 4.648438 37.984375 7.703125 C 36.492188 10.753906 33.132812 13.632812 27.90625 16.34375 C 22.675781 19.039062 18.335938 20.125 14.890625 19.59375 C 11.453125 19.0625 8.722656 16.847656 6.703125 12.953125 L 1.75 3.375 L 7.984375 0.5 L 26.453125 -9.0625 L 32.1875 -12.390625 Z M 10.6875 10.890625 C 11.539062 12.546875 12.609375 13.671875 13.890625 14.265625 C 15.179688 14.859375 16.773438 14.957031 18.671875 14.5625 C 20.578125 14.164062 22.882812 13.269531 25.59375 11.875 C 28.382812 10.425781 30.460938 9.050781 31.828125 7.75 C 33.203125 6.457031 33.988281 5.132812 34.1875 3.78125 C 34.382812 2.4375 34.046875 0.925781 33.171875 -0.75 L 30.546875 -5.828125 L 8.0625 5.8125 Z M 10.6875 10.890625 "/></g></g></g><g fill="#f15a31" fill-opacity="1"><g transform="translate(272.389556, 159.994741)"><g><path d="M 8.53125 22.78125 L 4 22.875 L 0.65625 3.734375 L 7.453125 2.859375 L 27.953125 -0.71875 L 34.421875 -2.171875 L 37.8125 17.28125 L 33.296875 17.375 L 30.875 3.5625 L 21.109375 5.28125 L 23.28125 17.6875 L 18.734375 17.734375 L 16.6875 6.046875 L 5.9375 7.9375 Z M 8.53125 22.78125 "/></g></g></g><g fill="#f15a31" fill-opacity="1"><g transform="translate(276.997275, 184.706059)"><g><path d="M -2.21875 14.046875 C -1.945312 11.804688 -1.375 9.835938 -0.5 8.140625 C 0.363281 6.453125 1.628906 4.921875 3.296875 3.546875 L 7.96875 3.421875 L 8.0625 4.078125 C 4.738281 7.140625 2.863281 10.441406 2.4375 13.984375 C 2.164062 16.222656 2.378906 18.007812 3.078125 19.34375 C 3.773438 20.6875 4.851562 21.445312 6.3125 21.625 C 7.300781 21.738281 8.140625 21.617188 8.828125 21.265625 C 9.515625 20.910156 10.1875 20.1875 10.84375 19.09375 C 11.5 18.007812 12.25 16.367188 13.09375 14.171875 C 14.457031 10.804688 15.984375 8.476562 17.671875 7.1875 C 19.359375 5.90625 21.550781 5.429688 24.25 5.765625 C 27.300781 6.140625 29.597656 7.410156 31.140625 9.578125 C 32.679688 11.742188 33.238281 14.550781 32.8125 18 C 32.5625 20.050781 32.007812 21.976562 31.15625 23.78125 C 30.3125 25.582031 29.269531 27.003906 28.03125 28.046875 L 23.671875 26.84375 L 23.5625 26.140625 C 24.707031 25.359375 25.707031 24.210938 26.5625 22.703125 C 27.425781 21.191406 27.957031 19.632812 28.15625 18.03125 C 28.425781 15.820312 28.21875 14.097656 27.53125 12.859375 C 26.851562 11.617188 25.726562 10.90625 24.15625 10.71875 C 23.070312 10.582031 22.15625 10.703125 21.40625 11.078125 C 20.65625 11.453125 19.957031 12.144531 19.3125 13.15625 C 18.664062 14.164062 17.960938 15.640625 17.203125 17.578125 C 16.222656 20.066406 15.226562 21.992188 14.21875 23.359375 C 13.21875 24.734375 12.082031 25.671875 10.8125 26.171875 C 9.539062 26.671875 8.035156 26.8125 6.296875 26.59375 C 3.171875 26.21875 0.863281 24.898438 -0.625 22.640625 C -2.113281 20.390625 -2.644531 17.523438 -2.21875 14.046875 Z M -2.21875 14.046875 "/></g></g></g><g fill="#f15a31" fill-opacity="1"><g transform="translate(272.798641, 212.200638)"><g><path d="M 5.03125 6.21875 L 24.5625 13.375 L 30.875 15.359375 L 29.0625 20.328125 L 22.9375 17.8125 L 3.40625 10.65625 L -3.125 8.53125 L -1.3125 3.5625 Z M 5.03125 6.21875 "/></g></g></g><g fill="#f15a31" fill-opacity="1"><g transform="translate(269.456318, 224.54869)"><g><path d="M 12.765625 11.984375 C 17.835938 15.410156 20.929688 18.84375 22.046875 22.28125 C 23.160156 25.71875 22.363281 29.445312 19.65625 33.46875 C 18.769531 34.78125 17.640625 35.972656 16.265625 37.046875 C 14.898438 38.128906 13.390625 38.960938 11.734375 39.546875 L 8.609375 36.484375 L 8.78125 35.5 C 9.988281 35.351562 11.269531 34.835938 12.625 33.953125 C 13.976562 33.066406 15.050781 32.046875 15.84375 30.890625 C 17.613281 28.265625 18.046875 25.78125 17.140625 23.4375 C 16.234375 21.101562 13.863281 18.640625 10.03125 16.046875 C 7.351562 14.234375 5.050781 13.007812 3.125 12.375 C 1.195312 11.738281 -0.460938 11.648438 -1.859375 12.109375 C -3.265625 12.578125 -4.507812 13.613281 -5.59375 15.21875 C -6.976562 17.28125 -7.3125 19.296875 -6.59375 21.265625 C -5.875 23.242188 -4.054688 25.21875 -1.140625 27.1875 L 3.640625 20.109375 L 7.34375 22.625 L 0.078125 33.375 L -15.453125 22.875 L -14.015625 20.75 L -10.109375 22.296875 C -10.898438 20.804688 -11.203125 19.148438 -11.015625 17.328125 C -10.835938 15.503906 -10.21875 13.8125 -9.15625 12.25 C -6.8125 8.78125 -3.84375 7.007812 -0.25 6.9375 C 3.34375 6.875 7.679688 8.554688 12.765625 11.984375 Z M 12.765625 11.984375 "/></g></g></g><g fill="#f15a31" fill-opacity="1"><g transform="translate(253.187433, 249.074981)"><g><path d="M -17.5 21.5 L -21.78125 16.3125 L -18.15625 13.59375 L -18.125 13.625 L -15.421875 11.59375 L 11.546875 29.28125 L -2.5625 10.5 L -6.90625 5.1875 L -3.03125 2.28125 L 0.84375 7.953125 L 13.328125 24.578125 L 17.5625 29.6875 L 11.15625 34.5 L -15.6875 16.875 L -1.609375 35.59375 L 2.703125 40.8125 L -1.171875 43.71875 L -5 38.140625 Z M -17.5 21.5 "/></g></g></g><g fill="#f15a31" fill-opacity="1"><g transform="translate(227.938403, 266.59335)"><g/></g></g><g fill="#f15a31" fill-opacity="1"><g transform="translate(217.944183, 271.233267)"><g><path d="M -8.96875 15.46875 C -9.21875 14.46875 -8.984375 13.578125 -8.265625 12.796875 C -7.878906 11.847656 -7.203125 11.25 -6.234375 11 C -5.347656 10.769531 -4.515625 10.953125 -3.734375 11.546875 C -2.660156 11.910156 -1.992188 12.609375 -1.734375 13.640625 C -1.472656 14.679688 -1.710938 15.609375 -2.453125 16.421875 C -2.835938 17.367188 -3.488281 17.957031 -4.40625 18.1875 C -5.40625 18.4375 -6.328125 18.210938 -7.171875 17.515625 C -8.117188 17.128906 -8.71875 16.445312 -8.96875 15.46875 Z M -8.96875 15.46875 "/></g></g></g><g fill="#f15a31" fill-opacity="1"><g transform="translate(200.312435, 275.337863)"><g/></g></g><g fill="#f15a31" fill-opacity="1"><g transform="translate(189.968138, 277.157015)"><g><path d="M -14.03125 -2.40625 C -11.789062 -2.101562 -9.832031 -1.503906 -8.15625 -0.609375 C -6.476562 0.273438 -4.953125 1.5625 -3.578125 3.25 L -3.515625 7.921875 L -4.171875 8.015625 C -7.191406 4.648438 -10.46875 2.734375 -14 2.265625 C -16.238281 1.960938 -18.03125 2.148438 -19.375 2.828125 C -20.726562 3.503906 -21.503906 4.570312 -21.703125 6.03125 C -21.835938 7.019531 -21.726562 7.859375 -21.375 8.546875 C -21.03125 9.242188 -20.316406 9.925781 -19.234375 10.59375 C -18.160156 11.269531 -16.53125 12.046875 -14.34375 12.921875 C -10.988281 14.328125 -8.675781 15.878906 -7.40625 17.578125 C -6.144531 19.285156 -5.695312 21.488281 -6.0625 24.1875 C -6.476562 27.226562 -7.78125 29.503906 -9.96875 31.015625 C -12.164062 32.523438 -14.988281 33.046875 -18.4375 32.578125 C -20.476562 32.296875 -22.394531 31.71875 -24.1875 30.84375 C -25.976562 29.976562 -27.390625 28.914062 -28.421875 27.65625 L -27.140625 23.328125 L -26.453125 23.234375 C -25.671875 24.378906 -24.53125 25.390625 -23.03125 26.265625 C -21.539062 27.148438 -20 27.703125 -18.40625 27.921875 C -16.195312 28.210938 -14.46875 28.023438 -13.21875 27.359375 C -11.976562 26.703125 -11.253906 25.585938 -11.046875 24.015625 C -10.898438 22.929688 -11.003906 22.007812 -11.359375 21.25 C -11.722656 20.5 -12.40625 19.789062 -13.40625 19.125 C -14.40625 18.46875 -15.867188 17.75 -17.796875 16.96875 C -20.273438 15.957031 -22.1875 14.9375 -23.53125 13.90625 C -24.882812 12.882812 -25.804688 11.738281 -26.296875 10.46875 C -26.785156 9.195312 -26.910156 7.691406 -26.671875 5.953125 C -26.253906 2.828125 -24.910156 0.535156 -22.640625 -0.921875 C -20.367188 -2.378906 -17.5 -2.875 -14.03125 -2.40625 Z M -14.03125 -2.40625 "/></g></g></g><g fill="#f15a31" fill-opacity="1"><g transform="translate(163.061155, 273.491756)"><g><path d="M -34.765625 16.59375 L -34.25 16.671875 L -30.5 19.046875 L -26.34375 20.9375 L -16.734375 -0.109375 L -14.1875 -6.46875 L -9.359375 -4.265625 L -12.5 1.828125 L -22.109375 22.875 L -17.9375 24.78125 L -13.703125 26.046875 L -13.296875 26.390625 L -15.9375 30.40625 L -36.0625 21.21875 Z M -34.765625 16.59375 "/></g></g></g><g fill="#f15a31" fill-opacity="1"><g transform="translate(140.191095, 263.540914)"><g><path d="M -42.578125 7.890625 L -37.9375 3.171875 L -27.046875 -8.984375 C -21.679688 -14.984375 -16.195312 -15.472656 -10.59375 -10.453125 C -7.769531 -7.929688 -6.332031 -5.289062 -6.28125 -2.53125 C -6.238281 0.226562 -7.550781 3.097656 -10.21875 6.078125 L -21.109375 18.234375 L -25.3125 23.34375 L -29.296875 19.78125 L -24.65625 15.0625 L -13.765625 2.90625 C -12.078125 1.019531 -11.222656 -0.726562 -11.203125 -2.34375 C -11.179688 -3.96875 -12.003906 -5.519531 -13.671875 -7 C -15.328125 -8.488281 -16.957031 -9.132812 -18.5625 -8.9375 C -20.164062 -8.738281 -21.8125 -7.695312 -23.5 -5.8125 L -34.390625 6.34375 L -38.59375 11.453125 Z M -42.578125 7.890625 "/></g></g></g><g fill="#f15a31" fill-opacity="1"><g transform="translate(118.757699, 244.653752)"><g><path d="M -37.015625 4.296875 C -39.210938 0.421875 -39.628906 -3.066406 -38.265625 -6.171875 C -36.898438 -9.285156 -33.660156 -12.300781 -28.546875 -15.21875 C -23.429688 -18.125 -19.140625 -19.378906 -15.671875 -18.984375 C -12.203125 -18.597656 -9.382812 -16.492188 -7.21875 -12.671875 L -1.875 -3.296875 L -7.984375 -0.1875 L -26.0625 10.109375 L -31.671875 13.671875 Z M -11.109375 -10.453125 C -12.023438 -12.066406 -13.140625 -13.144531 -14.453125 -13.6875 C -15.773438 -14.238281 -17.378906 -14.28125 -19.265625 -13.8125 C -21.148438 -13.34375 -23.414062 -12.351562 -26.0625 -10.84375 C -28.789062 -9.289062 -30.8125 -7.835938 -32.125 -6.484375 C -33.445312 -5.128906 -34.175781 -3.773438 -34.3125 -2.421875 C -34.457031 -1.066406 -34.0625 0.429688 -33.125 2.078125 L -30.296875 7.03125 L -8.28125 -5.5 Z M -11.109375 -10.453125 "/></g></g></g><g fill="#f15a31" fill-opacity="1"><g transform="translate(104.912584, 218.343157)"><g><path d="M -7.71875 -2.078125 L -27.71875 3.625 L -34.015625 5.734375 L -35.46875 0.640625 L -29.015625 -0.90625 L -9.015625 -6.609375 L -2.5 -8.75 L -1.046875 -3.65625 Z M -7.71875 -2.078125 "/></g></g></g><g fill="#f15a31" fill-opacity="1"><g transform="translate(100.307695, 206.433439)"><g><path d="M 0.234375 -15.6875 C 0.367188 -11.457031 -1.039062 -8.203125 -4 -5.921875 C -6.96875 -3.648438 -11.421875 -2.421875 -17.359375 -2.234375 C -23.242188 -2.046875 -27.703125 -2.992188 -30.734375 -5.078125 C -33.773438 -7.171875 -35.363281 -10.332031 -35.5 -14.5625 C -35.632812 -18.757812 -34.25 -22.003906 -31.34375 -24.296875 C -28.445312 -26.585938 -24.054688 -27.828125 -18.171875 -28.015625 C -12.234375 -28.203125 -7.710938 -27.242188 -4.609375 -25.140625 C -1.515625 -23.035156 0.0976562 -19.882812 0.234375 -15.6875 Z M -4.390625 -15.546875 C -4.453125 -17.398438 -4.941406 -18.890625 -5.859375 -20.015625 C -6.773438 -21.148438 -8.21875 -21.96875 -10.1875 -22.46875 C -12.15625 -22.976562 -14.765625 -23.179688 -18.015625 -23.078125 C -22.710938 -22.921875 -26.050781 -22.175781 -28.03125 -20.84375 C -30.019531 -19.519531 -30.972656 -17.472656 -30.890625 -14.703125 C -30.828125 -12.847656 -30.34375 -11.347656 -29.4375 -10.203125 C -28.53125 -9.054688 -27.109375 -8.238281 -25.171875 -7.75 C -23.234375 -7.257812 -20.679688 -7.066406 -17.515625 -7.171875 C -14.265625 -7.273438 -11.671875 -7.632812 -9.734375 -8.25 C -7.796875 -8.863281 -6.40625 -9.757812 -5.5625 -10.9375 C -4.71875 -12.125 -4.328125 -13.660156 -4.390625 -15.546875 Z M -4.390625 -15.546875 "/></g></g></g><g fill="#f15a31" fill-opacity="1"><g transform="translate(99.414561, 176.348688)"><g><path d="M 4.53125 -13.484375 C 3.882812 -11.316406 2.992188 -9.472656 1.859375 -7.953125 C 0.722656 -6.429688 -0.78125 -5.125 -2.65625 -4.03125 L -7.296875 -4.703125 L -7.265625 -5.359375 C -3.484375 -7.828125 -1.085938 -10.769531 -0.078125 -14.1875 C 0.566406 -16.351562 0.65625 -18.15625 0.1875 -19.59375 C -0.269531 -21.03125 -1.203125 -21.957031 -2.609375 -22.375 C -3.566406 -22.65625 -4.414062 -22.675781 -5.15625 -22.4375 C -5.894531 -22.207031 -6.675781 -21.609375 -7.5 -20.640625 C -8.332031 -19.679688 -9.347656 -18.1875 -10.546875 -16.15625 C -12.453125 -13.0625 -14.34375 -11.019531 -16.21875 -10.03125 C -18.101562 -9.050781 -20.347656 -8.953125 -22.953125 -9.734375 C -25.898438 -10.609375 -27.953125 -12.238281 -29.109375 -14.625 C -30.265625 -17.019531 -30.347656 -19.882812 -29.359375 -23.21875 C -28.765625 -25.195312 -27.898438 -27.003906 -26.765625 -28.640625 C -25.628906 -30.273438 -24.359375 -31.503906 -22.953125 -32.328125 L -18.875 -30.421875 L -18.890625 -29.703125 C -20.128906 -29.109375 -21.300781 -28.140625 -22.40625 -26.796875 C -23.507812 -25.460938 -24.289062 -24.023438 -24.75 -22.484375 C -25.382812 -20.335938 -25.46875 -18.597656 -25 -17.265625 C -24.539062 -15.941406 -23.550781 -15.054688 -22.03125 -14.609375 C -20.976562 -14.296875 -20.050781 -14.253906 -19.25 -14.484375 C -18.445312 -14.722656 -17.644531 -15.285156 -16.84375 -16.171875 C -16.039062 -17.066406 -15.101562 -18.40625 -14.03125 -20.1875 C -12.65625 -22.488281 -11.351562 -24.226562 -10.125 -25.40625 C -8.894531 -26.582031 -7.617188 -27.3125 -6.296875 -27.59375 C -4.972656 -27.882812 -3.46875 -27.78125 -1.78125 -27.28125 C 1.238281 -26.382812 3.296875 -24.695312 4.390625 -22.21875 C 5.484375 -19.75 5.53125 -16.835938 4.53125 -13.484375 Z M 4.53125 -13.484375 "/></g></g></g><g fill="#f15a31" fill-opacity="1"><g transform="translate(108.287089, 149.827154)"><g/></g></g><g fill="#f15a31" fill-opacity="1"><g transform="translate(113.412927, 140.074832)"><g><path d="M -2.265625 -17.734375 C -1.453125 -17.097656 -1.09375 -16.25 -1.1875 -15.1875 C -0.925781 -14.195312 -1.109375 -13.3125 -1.734375 -12.53125 C -2.296875 -11.8125 -3.0625 -11.445312 -4.03125 -11.4375 C -5.113281 -11.082031 -6.070312 -11.234375 -6.90625 -11.890625 C -7.738281 -12.554688 -8.109375 -13.4375 -8.015625 -14.53125 C -8.273438 -15.519531 -8.113281 -16.382812 -7.53125 -17.125 C -6.882812 -17.925781 -6.015625 -18.304688 -4.921875 -18.265625 C -3.929688 -18.535156 -3.046875 -18.359375 -2.265625 -17.734375 Z M -2.265625 -17.734375 "/></g></g></g><g clip-path="url(#033525a352)"><g clip-path="url(#ada210cdb8)"><path fill="#f15a31" d="M 30.21875 30.21875 L 344.78125 30.21875 L 344.78125 344.78125 L 30.21875 344.78125 Z M 30.21875 30.21875 " fill-opacity="1" fill-rule="nonzero"/></g></g><g clip-path="url(#b036ac0c97)"><g clip-path="url(#a375114aa9)"><path fill="#f15a31" d="M 131.214844 131.214844 L 243.785156 131.214844 L 243.785156 243.785156 L 131.214844 243.785156 Z M 131.214844 131.214844 " fill-opacity="1" fill-rule="nonzero"/></g></g><g clip-path="url(#6b04bf1910)"><path fill="#f15a31" d="M 161.257812 198.871094 C 161.945312 198.5625 162.371094 197.863281 163.042969 197.5625 C 163.570312 197.328125 164.214844 197.3125 164.746094 197.140625 C 165.417969 196.921875 165.953125 196.546875 166.386719 196.121094 C 167.527344 195.003906 167.914062 193.421875 168.40625 191.996094 C 169.195312 189.707031 170.585938 185.796875 168.136719 183.867188 C 167.296875 186.714844 167.957031 187.226562 166.417969 188.140625 C 165.582031 188.640625 164.597656 188.367188 163.363281 188.195312 C 161.773438 187.972656 159.808594 187.714844 157.609375 187.34375 C 155.769531 187.03125 153.726562 186.855469 151.496094 187.132812 C 147.59375 187.730469 147.695312 189.773438 148.910156 191.757812 C 154.148438 190.230469 158.886719 189.78125 162.765625 191.160156 C 158.765625 191.894531 154.847656 192.765625 151.1875 194.085938 C 151.644531 194.609375 151.867188 195.207031 152.160156 195.554688 C 152.367188 195.796875 152.65625 195.992188 153 196.171875 C 157.101562 193.703125 160.875 193.320312 164.4375 194.273438 C 161.449219 194.730469 158.425781 195.773438 155.375 197.21875 C 155.5 197.285156 155.625 197.351562 155.746094 197.425781 C 156.8125 198.070312 157.480469 199.269531 158.75 199.332031 C 159.570312 199.375 160.417969 199.242188 161.257812 198.871094 Z M 215.5625 188.960938 C 215.585938 190.105469 215.570312 191.253906 215.484375 192.40625 C 217.230469 193.828125 218.660156 194.84375 219.566406 196.441406 C 220.023438 197.242188 220.332031 198.175781 220.273438 199.039062 C 220.199219 200.148438 219.667969 201.195312 219.84375 202.28125 C 219.996094 203.195312 220.667969 204.03125 221.152344 204.867188 C 221.53125 205.515625 221.765625 206.179688 221.761719 206.761719 C 221.746094 207.832031 220.972656 209.023438 220.105469 210.183594 C 219.476562 211.03125 218.753906 211.859375 218.425781 212.621094 C 218.148438 213.265625 218.570312 213.601562 218.609375 214.140625 C 218.664062 214.925781 218.351562 215.855469 217.546875 216.453125 C 217.039062 216.828125 216.488281 217.140625 215.886719 217.382812 C 215.734375 217.039062 215.65625 216.597656 215.632812 216.082031 C 215.585938 215.117188 215.964844 213.90625 216.097656 212.625 C 216.269531 211.035156 216.195312 209.34375 216.039062 207.910156 C 215.96875 207.289062 215.699219 206.796875 215.597656 206.175781 C 215.238281 204.050781 216.660156 204.167969 214.03125 199.601562 C 213.121094 202.648438 211.875 205.085938 210.410156 207.066406 C 208.753906 209.300781 206.902344 211.089844 204.855469 212.378906 C 203.054688 213.519531 201.082031 214.238281 199.21875 214.960938 C 192.886719 217.414062 185.523438 216.648438 177.261719 213.054688 C 175.132812 215.671875 172.632812 217.839844 170.222656 219.976562 C 166.941406 222.386719 164.296875 223.835938 162.5625 223.910156 C 161.390625 223.960938 160.503906 223.753906 160.300781 222.265625 C 163.363281 220.652344 166.640625 220.214844 168.765625 218.511719 C 170.574219 217.0625 171.835938 215.320312 172.371094 213.183594 C 170.183594 214.800781 167.949219 216.25 165.632812 217.355469 C 164.191406 218.042969 162.597656 218.941406 161.027344 219.519531 C 161.269531 219.117188 161.507812 218.722656 161.660156 218.34375 C 161.871094 217.824219 161.902344 217.238281 161.945312 216.679688 C 166.78125 214.941406 170.363281 212.871094 172.453125 210.402344 C 170.855469 211.058594 169.199219 211.488281 167.699219 211.9375 C 166.460938 212.308594 165.335938 212.710938 164.191406 212.855469 C 164.527344 212.191406 164.457031 211.214844 164.617188 210.355469 C 164.753906 209.625 165.140625 208.996094 165.574219 208.582031 C 166.453125 207.746094 168.621094 208.277344 169.625 207.617188 C 168.886719 206.933594 168.191406 206.203125 167.132812 206.082031 C 166.046875 205.953125 164.847656 206.195312 163.421875 206.484375 C 162.289062 206.65625 161.757812 205.96875 162.710938 205.144531 C 167.320312 202.253906 165.199219 201.144531 166.441406 199.144531 C 168.761719 193.644531 170.484375 188.957031 173.179688 185.539062 C 175.113281 183.082031 177.148438 180.847656 179.4375 179.234375 C 181.800781 177.570312 184.433594 176.5625 187.207031 176.125 C 191.648438 175.429688 195.507812 177.160156 198.261719 179.511719 C 201.21875 182.039062 203.710938 186.199219 203.035156 192.464844 C 202.503906 197.390625 199.226562 200.519531 195.429688 202.253906 C 192.082031 203.785156 187.355469 205.4375 182.433594 203.277344 C 177.40625 201.070312 176.636719 196.996094 177.183594 194.445312 C 177.957031 190.832031 184.054688 184.914062 189.457031 185.300781 C 193.878906 185.617188 195.6875 188.941406 195.445312 190.539062 C 195.1875 192.242188 192.792969 195.097656 185.472656 195.03125 C 187.878906 194.300781 189.71875 193.582031 190.988281 192.875 C 193.777344 191.320312 194.046875 189.265625 191.097656 188.367188 C 187.691406 187.328125 184.890625 188.804688 182.960938 190.199219 C 180.050781 192.304688 178.839844 195.550781 178.941406 197.011719 C 179.019531 198.1875 180.195312 200.242188 182.496094 201.539062 C 184.398438 202.613281 187.074219 203.164062 190.539062 202.261719 C 195.679688 200.925781 198.777344 198.226562 200.160156 195.355469 C 201.316406 192.949219 201.175781 190.390625 200.921875 188.710938 C 200.253906 184.359375 195.574219 179.5 187.074219 179.382812 C 182.953125 179.324219 179.761719 182.253906 177.078125 184.871094 C 174.308594 187.566406 172.472656 191.183594 170.769531 195.394531 C 169.957031 197.390625 169.792969 199.597656 170.59375 202.199219 C 171.417969 204.871094 173.308594 207.828125 175.1875 210.90625 C 177.613281 212.769531 178.113281 212.101562 179.652344 212.230469 C 180.371094 212.289062 180.726562 212.804688 181.394531 213.03125 C 182.175781 213.296875 183.265625 213.273438 184.0625 213.273438 C 185.0625 213.273438 186.066406 213.269531 186.953125 213.015625 C 187.78125 212.773438 188.496094 212.285156 189.367188 212.148438 C 192.6875 211.636719 196.296875 213.109375 199.125 212.167969 C 200.292969 211.78125 201.480469 210.886719 202.398438 209.820312 C 203.160156 208.941406 203.667969 208.015625 204.425781 207.566406 C 204.859375 207.304688 205.515625 207.328125 206.238281 207.265625 C 207.359375 207.167969 208.582031 206.882812 208.878906 206.246094 C 209.15625 205.648438 209.382812 204.703125 209.132812 203.832031 C 208.730469 202.4375 208.183594 200.882812 208.828125 199.929688 C 209.085938 199.546875 209.601562 199.109375 210.226562 198.882812 C 211.414062 198.453125 212.910156 198.308594 213.175781 197.367188 C 213.382812 196.628906 213.234375 195.539062 212.507812 194.484375 C 211.804688 193.472656 211.613281 192.203125 212.015625 191.472656 C 212.640625 190.332031 214.84375 189.703125 215.5625 188.960938 Z M 221.5625 167.347656 C 221.847656 167.300781 221.882812 167.078125 221.648438 166.96875 C 221.4375 166.867188 221.160156 166.789062 220.988281 166.976562 C 220.894531 167.078125 220.828125 167.308594 220.945312 167.386719 C 221.117188 167.496094 221.359375 167.378906 221.5625 167.347656 Z M 224.992188 172.183594 C 225.140625 172.144531 225.3125 172.152344 225.449219 172.214844 C 225.679688 172.3125 225.714844 172.59375 225.472656 172.757812 C 225.335938 172.847656 225.117188 172.761719 224.980469 172.667969 C 224.75 172.511719 224.730469 172.257812 224.992188 172.183594 Z M 206.269531 173.863281 C 207.289062 175.921875 209.421875 177.246094 210.34375 178.964844 C 211.101562 180.371094 210.816406 181.730469 211.359375 182.898438 C 211.617188 183.457031 211.890625 183.984375 212.164062 184.464844 C 212.652344 185.3125 212.238281 186.777344 212.710938 187.332031 C 213.402344 188.136719 214.953125 187.84375 215.402344 187.839844 C 215.773438 186.703125 215.117188 185.277344 215.601562 184.566406 C 216.515625 183.234375 217.484375 181.851562 218.667969 180.675781 C 218.125 180.269531 218.328125 179.261719 217.871094 178.828125 C 216.921875 177.921875 215.535156 177.347656 214.671875 176.546875 C 213.90625 175.84375 213.640625 174.914062 213.132812 174.101562 C 212.773438 173.519531 211.921875 173.253906 211.660156 172.660156 C 211.296875 172.816406 210.945312 172.953125 210.667969 173.09375 C 210.019531 173.417969 209.601562 173.6875 209.023438 173.777344 C 208.371094 173.875 207.535156 173.777344 206.269531 173.863281 Z M 220.929688 178.964844 C 221.125 178.894531 221.316406 178.820312 221.5 178.683594 C 221.660156 178.5625 221.8125 178.433594 221.953125 178.296875 C 221.414062 175.441406 221.585938 173.21875 222.601562 171.757812 C 223.203125 170.898438 224.097656 170.300781 225.316406 169.996094 C 225.953125 169.835938 226.761719 169.574219 227.519531 169.726562 C 227.730469 168.964844 227.78125 168.296875 227.363281 167.730469 C 226.9375 167.15625 226.132812 167.105469 225.40625 167.011719 C 224.28125 167.71875 223.40625 168.675781 222.347656 169.097656 C 221.941406 169.257812 221.53125 169.386719 221.117188 169.480469 C 219.226562 169.90625 217.179688 169.730469 215.230469 168.964844 C 215.082031 169.039062 214.941406 169.117188 214.804688 169.199219 C 214.308594 169.496094 213.941406 170.09375 213.640625 170.722656 C 213.480469 171.050781 213.441406 171.402344 213.191406 171.691406 C 213.171875 171.710938 213.15625 171.730469 213.136719 171.75 C 213.472656 172.269531 213.730469 172.8125 214 173.339844 C 214.347656 174.019531 214.542969 174.886719 215.132812 175.441406 C 215.699219 175.972656 216.6875 176.25 217.527344 176.867188 C 218.175781 177.347656 218.519531 178.304688 219.125 178.695312 C 219.660156 179.039062 220.464844 178.832031 220.929688 178.964844 Z M 224.328125 166.726562 C 223.914062 166.523438 223.519531 166.261719 223.101562 166.0625 C 222.546875 165.796875 221.960938 165.640625 221.316406 165.691406 C 220.882812 165.722656 220.46875 165.816406 220.0625 165.953125 C 219.246094 166.234375 218.972656 166.984375 218.179688 167.523438 C 218.117188 167.566406 218.050781 167.609375 217.984375 167.652344 C 218.851562 168.511719 219.8125 168.859375 220.863281 168.691406 C 221.886719 168.53125 223.453125 167.828125 224.328125 166.726562 Z M 223.832031 176.019531 C 223.910156 175.9375 223.988281 175.855469 224.070312 175.78125 C 224.882812 175.011719 225.96875 174.703125 226.351562 173.964844 C 226.539062 173.605469 226.765625 173.277344 226.832031 172.890625 C 226.921875 172.398438 226.832031 171.847656 226.964844 171.4375 C 227.046875 171.171875 227.136719 170.914062 227.21875 170.664062 C 226.222656 170.027344 224.058594 171.273438 223.605469 172.125 C 223.089844 173.089844 223.257812 174.566406 223.832031 176.019531 Z M 191.394531 190.621094 C 188.664062 189.503906 185.203125 191.332031 183.558594 192.503906 C 182.351562 193.359375 181.15625 194.78125 181.203125 196.34375 C 181.234375 197.347656 181.753906 198.496094 182.734375 199.601562 C 184.25 201.304688 186.175781 201.5 187.710938 201.5 C 189.570312 201.503906 191.289062 200.78125 193.003906 200.03125 C 194.445312 199.398438 196.480469 198.273438 197.878906 196.792969 C 198.773438 195.84375 199.601562 194.648438 199.667969 193.449219 C 199.855469 190.152344 198.988281 187.550781 197.34375 185.507812 C 195.800781 183.585938 193.042969 181.800781 190.074219 181.539062 C 184.808594 181.078125 180.480469 183.070312 177.6875 185.960938 C 175.300781 188.433594 172.554688 192.378906 173.953125 197.003906 C 175.148438 200.96875 176.835938 204.132812 179.929688 206.09375 C 182.660156 207.824219 186.347656 209.113281 191.03125 208.457031 C 195.351562 207.851562 198.800781 205.421875 201.570312 202.394531 C 203.070312 200.753906 204.34375 198.804688 205.378906 196.535156 C 206.136719 194.878906 206.859375 193.070312 207.261719 191.046875 C 207.472656 189.96875 207.566406 189.011719 207.785156 188.167969 C 208.5 185.410156 209.511719 183.699219 209.164062 181.226562 C 208.757812 178.378906 205.921875 175.78125 205.066406 172.789062 C 203.96875 172.003906 202.847656 171.300781 201.699219 170.699219 C 201.925781 170.425781 202.058594 170.128906 202.125 169.8125 C 202.210938 169.410156 201.917969 168.886719 201.476562 168.5625 C 201.238281 168.386719 200.933594 168.441406 200.679688 168.214844 C 200.351562 167.917969 200.0625 167.359375 199.886719 167.035156 C 199.648438 166.59375 199.980469 166.191406 199.996094 165.726562 C 200.019531 165.027344 199.78125 164.28125 199.480469 163.765625 C 198.875 162.738281 197.609375 162.5 196.40625 161.886719 C 195.796875 161.574219 195.074219 161.03125 194.71875 160.523438 C 194.316406 159.949219 193.984375 159.242188 193.941406 158.914062 C 193.207031 158.550781 192.167969 158.445312 191.050781 158.554688 C 189.863281 158.671875 188.578125 159.007812 187.464844 158.726562 C 186.949219 158.597656 186.375 158.238281 186.042969 157.773438 C 185.789062 157.421875 185.773438 156.980469 185.460938 156.707031 C 184.992188 156.292969 184.226562 156.234375 183.554688 156.292969 C 181.960938 156.429688 180.28125 156.863281 178.535156 157.730469 C 178.929688 157.875 179.351562 157.769531 179.773438 157.90625 C 180.421875 158.113281 180.628906 158.582031 181.296875 158.820312 C 182.621094 159.289062 184.398438 159.554688 185.488281 160.042969 C 186 160.273438 185.980469 160.785156 186.324219 161.125 C 186.832031 161.625 187.667969 161.988281 188.332031 162.445312 C 188.710938 162.707031 189.226562 162.914062 189.742188 163.039062 C 190.722656 163.28125 191.785156 163.367188 192.445312 163.90625 C 192.976562 164.347656 192.996094 164.984375 193.257812 165.679688 C 193.519531 166.375 194.023438 167.136719 194.472656 167.648438 C 188.519531 166.238281 181.515625 167.613281 176.828125 170.726562 C 173.1875 173.144531 170.378906 177.023438 168.667969 182.8125 C 169.984375 182.253906 170.878906 181.609375 171.527344 180.929688 C 172.554688 179.839844 172.8125 178.605469 173.222656 177.527344 C 173.589844 176.574219 174.101562 175.75 174.957031 175.085938 C 176.851562 173.625 179.148438 172.921875 181.320312 172.070312 C 182.265625 171.703125 183.136719 170.558594 184.066406 170.34375 C 184.789062 170.179688 185.609375 170.402344 186.378906 170.515625 C 187.148438 170.625 187.867188 170.625 188.699219 170.550781 C 189.347656 170.492188 190.238281 170.304688 191.078125 170 C 192.160156 169.609375 193.214844 169.105469 194.222656 169.285156 C 194.976562 169.417969 195.527344 169.941406 196.171875 170.390625 C 197.113281 171.046875 198.109375 171.660156 199.046875 171.585938 C 199.800781 171.527344 200.492188 171.363281 201.082031 171.039062 C 204.292969 176.855469 206.023438 182.429688 205.355469 187.628906 C 205.445312 192.15625 204.300781 195.78125 202.191406 198.699219 C 199.566406 202.339844 195.640625 205.554688 190.347656 206.71875 C 187 207.453125 183.910156 206.074219 181.417969 204.503906 C 179.21875 203.117188 176.710938 201.265625 176.105469 198.148438 C 175.144531 193.183594 177.65625 189.824219 179.976562 187.492188 C 182.867188 184.585938 186.921875 182.589844 192.390625 184.3125 C 196.492188 185.601562 197.542969 188.695312 197.539062 191.136719 C 197.535156 193.988281 195.800781 197.453125 191.433594 199.210938 C 189.574219 199.957031 187.757812 199.652344 186.476562 199.375 C 184.183594 198.882812 183.066406 197.378906 183.0625 196.460938 C 183.058594 195.03125 185.351562 192.253906 191.394531 190.621094 Z M 185.03125 196.609375 C 184.765625 200.109375 195.59375 199.109375 196.039062 191.691406 C 193.191406 195.792969 190.167969 197.691406 185.03125 196.609375 Z M 210.289062 183.96875 C 208.3125 198.757812 201.492188 206.191406 195.945312 208.5625 C 189.039062 211.515625 173.773438 210.617188 172.34375 195.535156 C 170.058594 199.3125 172.222656 205.105469 175.65625 208.195312 C 176.800781 209.222656 178.65625 209.257812 179.773438 209.742188 C 181.078125 210.308594 182.390625 211.441406 183.78125 211.640625 C 187.625 212.195312 191.609375 210.804688 194.097656 210.296875 C 195.1875 210.070312 196.644531 210.84375 198.019531 210.507812 C 199.394531 210.171875 200.6875 208.730469 202.011719 207.773438 C 203.253906 206.875 205.378906 205.902344 206.398438 204.382812 C 207.554688 202.660156 207.578125 200.332031 208.496094 198.445312 C 208.925781 197.566406 210.46875 196.988281 210.816406 195.996094 C 211.394531 194.324219 210.9375 192.394531 210.773438 190.292969 C 210.617188 188.3125 210.789062 186.183594 210.289062 183.96875 Z M 170.652344 187.5 C 171.003906 184.734375 171.878906 182.417969 173.078125 180.492188 C 174.007812 179.003906 174.273438 177.039062 175.5 175.996094 C 176.726562 174.953125 178.914062 174.828125 180.253906 174.179688 C 181.59375 173.53125 182.941406 172.425781 184.207031 172.121094 C 185.324219 171.851562 186.378906 172.34375 187.304688 172.300781 C 189.027344 172.226562 191.226562 170.605469 193.46875 171.125 C 194.597656 171.382812 195.53125 173.039062 196.710938 173.328125 C 198.046875 173.652344 199.832031 173.921875 200.878906 174.882812 C 203.257812 177.066406 204.351562 181.71875 204.363281 186.636719 C 200.808594 177.585938 193.792969 174.484375 188.265625 174.5625 C 182.5625 174.640625 175.824219 178.53125 170.652344 187.5 Z M 215.804688 218.417969 C 223.019531 213.679688 219.1875 215.519531 220.363281 211.800781 C 220.726562 210.640625 222.414062 210.570312 222.667969 209.453125 C 222.925781 208.316406 223.40625 207.480469 223.453125 206.300781 C 223.515625 204.707031 222.652344 202.988281 222.238281 201.253906 C 221.945312 200.015625 222.203125 198.773438 221.738281 197.539062 C 221.277344 196.308594 220.773438 195.121094 220.148438 193.910156 C 219.957031 193.539062 219.757812 193.164062 219.539062 192.785156 C 219.164062 192.125 218.746094 191.449219 218.273438 190.75 C 219.429688 191.011719 220.433594 191.441406 221.292969 191.996094 C 222.5625 192.8125 223.375 194.160156 224.210938 195.484375 C 224.996094 196.730469 225.835938 197.933594 226.140625 199.328125 C 226.703125 201.898438 226.292969 204.421875 226.039062 206.828125 C 225.828125 208.8125 225.890625 210.882812 225.242188 212.933594 C 224.828125 214.25 223.917969 215.488281 223.117188 216.910156 C 222.117188 218.6875 221.078125 220.085938 219.195312 222.140625 C 218.960938 222.621094 218.363281 223.355469 218.050781 223.378906 C 217.601562 223.410156 217.394531 222.992188 217.105469 222.574219 C 216.804688 222.140625 216.148438 221.632812 215.957031 221.03125 C 215.636719 220.03125 215.863281 218.90625 215.804688 218.417969 Z M 205.066406 170.488281 C 204.132812 169.222656 201.808594 168.3125 201.050781 167.085938 C 200.59375 166.351562 201.683594 165.273438 201.222656 164.578125 C 200.191406 163.027344 199.230469 161.179688 198.132812 159.914062 C 197.652344 159.363281 196.71875 159.417969 196.175781 159.039062 C 195.484375 158.550781 195.160156 157.667969 194.332031 157.285156 C 192.703125 156.527344 190.078125 157.226562 188.101562 156.863281 C 186.753906 156.617188 186.125 155.152344 184.671875 155.230469 C 182.304688 155.351562 179.828125 155.984375 177.355469 157.363281 C 175.480469 157.03125 175.113281 155.191406 172.90625 154.289062 C 171.746094 153.441406 172.273438 152.550781 174.828125 151.605469 C 179.414062 150.800781 183.535156 150.773438 187.152344 151.304688 C 191.070312 151.875 193.765625 153.925781 196.464844 155.5 C 199.527344 157.28125 202.421875 158.6875 203.804688 160.960938 C 205.382812 163.550781 206.8125 167.378906 205.066406 170.488281 Z M 205.066406 170.488281 " fill-opacity="1" fill-rule="evenodd"/></g></svg>