<svg width="420" height="420" viewBox="0 0 420 420" fill="none" xmlns="http://www.w3.org/2000/svg">
<path d="M148.681 111.534C146.124 113.133 143.603 114.196 141.118 114.722C138.644 115.238 135.993 115.212 133.16 114.639L129.097 109.909L129.702 109.264C135.67 110.128 140.665 109.3 144.681 106.784C147.233 105.191 148.915 103.467 149.722 101.618C150.525 99.7741 150.415 98.0241 149.389 96.3678C148.681 95.2324 147.847 94.4512 146.889 94.0345C145.941 93.6178 144.629 93.5293 142.952 93.7637C141.269 94.0032 138.936 94.6074 135.952 95.5762C131.327 96.9928 127.639 97.3678 124.889 96.7012C122.139 96.0241 119.801 94.1491 117.868 91.0762C115.702 87.6074 115.097 84.1595 116.056 80.7428C117.004 77.3262 119.441 74.3887 123.368 71.9303C125.702 70.4616 128.16 69.4095 130.743 68.7845C133.327 68.1595 135.67 68.0501 137.785 68.4512L140.202 73.972L139.577 74.6595C137.795 74.1491 135.769 74.0762 133.493 74.4512C131.217 74.8262 129.16 75.5866 127.327 76.722C124.816 78.3053 123.202 79.972 122.493 81.722C121.775 83.4616 121.972 85.222 123.097 87.0137C123.879 88.2532 124.775 89.1074 125.785 89.5762C126.801 90.0345 128.108 90.1751 129.702 89.9928C131.285 89.8157 133.394 89.3001 136.035 88.4512C139.436 87.3835 142.269 86.8001 144.535 86.7012C146.795 86.5918 148.722 86.9824 150.306 87.8678C151.889 88.7585 153.295 90.196 154.535 92.1803C156.769 95.7376 157.337 99.2376 156.243 102.68C155.16 106.113 152.639 109.066 148.681 111.534Z" fill="#F15A31"/>
<path d="M199.549 92.2912L192.091 94.1662L187.799 85.8121L186.695 83.8954L170.986 87.9579L170.882 90.0412L171.091 99.4162L164.361 101.104L165.153 91.4787L166.674 62.8329V53.4162L174.966 51.3329L179.32 59.6662L194.257 84.1871L199.549 92.2912ZM183.528 78.5204L172.132 59.0621L171.257 81.7287L183.528 78.5204Z" fill="#F15A31"/>
<path d="M232.317 88.1682L231.087 94.1057L205.233 92.7515L206.129 83.6473L207.587 55.939L207.629 47.1057L214.671 47.4807L213.858 56.2723L212.4 83.9807L212.358 87.1265L232.317 88.1682Z" fill="#F15A31"/>
<path d="M276.141 67.3624L275.433 67.2999L270.162 64.654L264.37 62.6749L254.391 91.8624L251.849 100.654L245.162 98.3624L248.516 89.8624L258.495 60.6749L252.724 58.6957L246.933 57.5499L246.37 57.1749L249.349 51.4874L277.245 61.029L276.141 67.3624Z" fill="#F15A31"/>
<path d="M301.033 111.033C300.142 112.091 298.996 112.533 297.595 112.367C296.262 112.674 295.08 112.403 294.054 111.554C293.121 110.762 292.679 109.716 292.72 108.408C292.272 106.981 292.512 105.721 293.429 104.637C294.356 103.544 295.543 103.075 296.991 103.242C298.324 102.94 299.47 103.195 300.429 104.012C301.481 104.887 301.955 106.054 301.845 107.512C302.179 108.835 301.908 110.007 301.033 111.033Z" fill="#F15A31"/>
<path d="M355.073 135.058C357.808 140.334 358.183 145.006 356.198 149.079C354.209 153.147 349.73 156.985 342.761 160.6C335.787 164.194 330.001 165.642 325.407 164.933C320.823 164.225 317.183 161.272 314.49 156.079L307.886 143.308L316.198 139.475L340.823 126.725L348.469 122.288L355.073 135.058ZM319.803 153.329C320.938 155.538 322.365 157.038 324.073 157.829C325.792 158.621 327.917 158.751 330.448 158.225C332.99 157.694 336.063 156.501 339.678 154.642C343.396 152.709 346.167 150.876 347.99 149.142C349.823 147.418 350.87 145.652 351.136 143.85C351.396 142.058 350.948 140.043 349.782 137.808L346.282 131.038L316.303 146.558L319.803 153.329Z" fill="#F15A31"/>
<path d="M334.561 203.701L328.519 203.826L324.061 178.305L333.124 177.139L360.457 172.368L369.082 170.43L373.603 196.368L367.582 196.493L364.353 178.076L351.332 180.368L354.228 196.91L348.165 196.972L345.436 181.389L331.103 183.91L334.561 203.701Z" fill="#F15A31"/>
<path d="M326.371 225.004C326.736 222.014 327.496 219.389 328.663 217.129C329.814 214.879 331.502 212.837 333.726 211.004L339.955 210.837L340.08 211.712C335.647 215.796 333.147 220.197 332.58 224.921C332.215 227.905 332.502 230.285 333.434 232.066C334.361 233.858 335.798 234.869 337.746 235.108C339.064 235.259 340.184 235.098 341.101 234.629C342.017 234.155 342.913 233.191 343.788 231.733C344.663 230.285 345.663 228.098 346.788 225.171C348.606 220.681 350.642 217.577 352.892 215.858C355.142 214.15 358.064 213.514 361.663 213.962C365.731 214.462 368.793 216.155 370.851 219.046C372.903 221.931 373.647 225.676 373.08 230.275C372.746 233.009 372.007 235.577 370.871 237.983C369.746 240.384 368.356 242.28 366.705 243.671L360.892 242.066L360.746 241.129C362.272 240.087 363.606 238.556 364.746 236.546C365.897 234.53 366.606 232.452 366.871 230.316C367.231 227.369 366.955 225.072 366.038 223.421C365.132 221.764 363.632 220.816 361.538 220.566C360.09 220.384 358.871 220.546 357.871 221.046C356.871 221.546 355.939 222.467 355.08 223.816C354.215 225.16 353.278 227.129 352.267 229.712C350.96 233.03 349.632 235.598 348.288 237.421C346.955 239.254 345.439 240.504 343.746 241.171C342.048 241.837 340.043 242.025 337.726 241.733C333.559 241.233 330.481 239.473 328.496 236.462C326.512 233.462 325.804 229.639 326.371 225.004Z" fill="#F15A31"/>
<path d="M330.44 251.226L356.482 260.768L364.898 263.413L362.482 270.038L354.315 266.684L328.273 257.143L319.565 254.309L321.982 247.684L330.44 251.226Z" fill="#F15A31"/>
<path d="M336.296 275.377C343.056 279.945 347.181 284.523 348.671 289.107C350.155 293.69 349.093 298.659 345.483 304.023C344.301 305.773 342.796 307.362 340.963 308.794C339.14 310.237 337.129 311.346 334.921 312.127L330.754 308.044L330.983 306.732C332.593 306.534 334.301 305.846 336.108 304.669C337.911 303.487 339.343 302.127 340.4 300.586C342.759 297.086 343.338 293.773 342.129 290.648C340.921 287.534 337.759 284.252 332.65 280.794C329.077 278.377 326.009 276.742 323.442 275.898C320.869 275.049 318.661 274.93 316.796 275.544C314.921 276.169 313.265 277.549 311.817 279.69C309.973 282.44 309.525 285.127 310.483 287.752C311.442 290.388 313.869 293.023 317.754 295.648L324.129 286.211L329.067 289.565L319.379 303.898L298.671 289.898L300.588 287.065L305.796 289.127C304.744 287.138 304.338 284.93 304.588 282.502C304.827 280.07 305.65 277.815 307.067 275.732C310.192 271.107 314.15 268.742 318.942 268.648C323.733 268.565 329.515 270.805 336.296 275.377Z" fill="#F15A31"/>
<path d="M274.25 320.767L268.542 313.85L273.375 310.225L273.417 310.267L277.021 307.558L312.979 331.142L294.167 306.1L288.375 299.017L293.542 295.142L298.708 302.704L315.354 324.871L321 331.683L312.458 338.1L276.667 314.6L295.437 339.558L301.187 346.517L296.021 350.392L290.917 342.954L274.25 320.767Z" fill="#F15A31"/>
<path d="M238.634 342.269C238.301 340.936 238.613 339.749 239.571 338.707C240.087 337.441 240.988 336.644 242.28 336.311C243.462 336.004 244.571 336.249 245.613 337.04C247.045 337.525 247.936 338.457 248.28 339.832C248.629 341.217 248.311 342.457 247.321 343.54C246.811 344.801 245.941 345.587 244.717 345.894C243.384 346.228 242.155 345.926 241.03 344.999C239.769 344.483 238.967 343.571 238.634 342.269Z" fill="#F15A31"/>
<path d="M194.583 326.334C197.572 326.741 200.181 327.537 202.416 328.73C204.655 329.907 206.687 331.626 208.52 333.876L208.603 340.105L207.728 340.23C203.702 335.741 199.333 333.189 194.624 332.564C191.64 332.157 189.249 332.407 187.458 333.314C185.655 334.215 184.619 335.636 184.353 337.584C184.176 338.902 184.322 340.022 184.791 340.939C185.249 341.866 186.202 342.777 187.645 343.668C189.077 344.569 191.249 345.605 194.166 346.772C198.64 348.647 201.723 350.715 203.416 352.98C205.098 355.256 205.697 358.194 205.208 361.793C204.655 365.845 202.916 368.881 199.999 370.897C197.072 372.907 193.306 373.605 188.708 372.98C185.989 372.605 183.431 371.834 181.041 370.668C178.655 369.511 176.77 368.095 175.395 366.418L177.103 360.647L178.02 360.522C179.062 362.048 180.583 363.397 182.583 364.564C184.572 365.741 186.624 366.48 188.749 366.772C191.697 367.157 193.999 366.907 195.666 366.022C197.322 365.147 198.286 363.657 198.562 361.564C198.76 360.116 198.619 358.886 198.145 357.876C197.661 356.876 196.749 355.928 195.416 355.043C194.083 354.168 192.135 353.209 189.562 352.168C186.26 350.819 183.708 349.459 181.916 348.084C180.114 346.72 178.885 345.194 178.228 343.501C177.577 341.803 177.411 339.798 177.728 337.48C178.286 333.314 180.077 330.256 183.103 328.314C186.135 326.371 189.958 325.709 194.583 326.334Z" fill="#F15A31"/>
<path d="M131.061 346.781L131.748 346.885L136.748 350.052L142.29 352.572L155.102 324.51L158.498 316.031L164.936 318.968L160.748 327.093L147.936 355.156L153.498 357.697L159.144 359.385L159.686 359.843L156.165 365.197L129.332 352.947L131.061 346.781Z" fill="#F15A31"/>
<path d="M90.1506 321.909L96.3381 315.617L110.859 299.409C118.015 291.409 125.328 290.758 132.796 297.45C136.562 300.815 138.479 304.336 138.546 308.013C138.604 311.69 136.854 315.518 133.296 319.492L118.776 335.7L113.171 342.513L107.859 337.763L114.046 331.471L128.567 315.263C130.817 312.747 131.958 310.419 131.984 308.263C132.015 306.096 130.916 304.029 128.692 302.055C126.484 300.07 124.312 299.211 122.171 299.471C120.036 299.737 117.838 301.128 115.588 303.638L101.067 319.846L95.4631 326.659L90.1506 321.909Z" fill="#F15A31"/>
<path d="M68.9894 291.934C66.0623 286.768 65.5051 282.116 67.3228 277.976C69.1457 273.825 73.4634 269.804 80.2811 265.913C87.104 262.038 92.8228 260.366 97.4478 260.893C102.073 261.408 105.833 264.215 108.719 269.309L115.844 281.809L107.698 285.955L83.5936 299.684L76.1144 304.434L68.9894 291.934ZM103.531 272.268C102.312 270.116 100.823 268.679 99.0728 267.955C97.3123 267.221 95.1717 267.163 92.6561 267.788C90.1457 268.413 87.1248 269.736 83.5936 271.747C79.9582 273.82 77.2603 275.757 75.5103 277.559C73.7498 279.366 72.7759 281.174 72.5936 282.976C72.4009 284.783 72.9269 286.778 74.1769 288.976L77.9478 295.58L107.302 278.872L103.531 272.268Z" fill="#F15A31"/>
<path d="M89.5918 248.353L62.9251 255.958L54.5293 258.77L52.5918 251.978L61.1959 249.916L87.8626 242.312L96.5501 239.458L98.4876 246.249L89.5918 248.353Z" fill="#F15A31"/>
<path d="M94.0561 214.328C94.2332 219.969 92.3582 224.307 88.4103 227.349C84.4519 230.38 78.5144 232.015 70.5978 232.265C62.754 232.515 56.8061 231.255 52.7644 228.474C48.7123 225.682 46.5925 221.469 46.4103 215.828C46.2332 210.234 48.0769 205.906 51.9519 202.849C55.8165 199.797 61.6707 198.14 69.5144 197.89C77.4311 197.64 83.4623 198.922 87.5978 201.724C91.7228 204.531 93.8738 208.734 94.0561 214.328ZM87.8894 214.515C87.8061 212.047 87.1551 210.057 85.9311 208.557C84.7123 207.047 82.7853 205.953 80.1603 205.286C77.5353 204.609 74.0561 204.338 69.7228 204.474C63.4623 204.682 59.0092 205.677 56.3686 207.453C53.7176 209.219 52.4467 211.948 52.5561 215.64C52.6394 218.114 53.2853 220.114 54.4936 221.64C55.7019 223.172 57.5978 224.26 60.1811 224.911C62.7644 225.568 66.1707 225.823 70.3894 225.682C74.7228 225.547 78.1811 225.068 80.7644 224.245C83.3478 223.427 85.2019 222.234 86.3269 220.661C87.4519 219.078 87.9728 217.031 87.8894 214.515Z" fill="#F15A31"/>
<path d="M98.5944 177.152C97.7298 180.043 96.5423 182.501 95.0319 184.527C93.5163 186.559 91.5111 188.298 89.0111 189.757L82.8236 188.861L82.8652 187.986C87.9069 184.694 91.1048 180.772 92.4486 176.215C93.3079 173.33 93.4277 170.923 92.8027 169.007C92.1934 167.09 90.9486 165.856 89.0736 165.298C87.7975 164.923 86.6673 164.897 85.6777 165.215C84.6934 165.522 83.6517 166.319 82.5527 167.611C81.4434 168.892 80.0892 170.882 78.4902 173.59C75.9486 177.715 73.4277 180.439 70.9277 181.757C68.4173 183.064 65.4225 183.194 61.9486 182.152C58.0215 180.986 55.2819 178.814 53.7402 175.632C52.1986 172.439 52.0892 168.621 53.4069 164.173C54.1986 161.538 55.3548 159.126 56.8652 156.944C58.3809 154.767 60.0736 153.126 61.9486 152.027L67.3861 154.569L67.3652 155.527C65.7142 156.319 64.1517 157.611 62.6777 159.402C61.209 161.184 60.1673 163.1 59.5527 165.152C58.709 168.017 58.5944 170.335 59.2194 172.111C59.834 173.876 61.1517 175.059 63.1777 175.652C64.584 176.069 65.8184 176.126 66.8861 175.819C67.959 175.501 69.0267 174.751 70.0944 173.569C71.1673 172.376 72.4173 170.59 73.8444 168.215C75.6777 165.147 77.4173 162.83 79.0527 161.257C80.6934 159.689 82.3965 158.715 84.1569 158.34C85.9225 157.955 87.9277 158.09 90.1777 158.757C94.2038 159.955 96.9486 162.205 98.4069 165.507C99.8652 168.798 99.9277 172.684 98.5944 177.152Z" fill="#F15A31"/>
<path d="M108.196 123.121C109.28 123.97 109.759 125.1 109.634 126.516C109.983 127.839 109.738 129.016 108.905 130.058C108.155 131.016 107.134 131.506 105.842 131.516C104.4 131.99 103.123 131.787 102.009 130.912C100.9 130.027 100.405 128.85 100.53 127.391C100.186 126.074 100.4 124.923 101.176 123.933C102.04 122.865 103.196 122.36 104.655 122.412C105.978 122.053 107.155 122.287 108.196 123.121Z" fill="#F15A31"/>
<mask id="mask0_1_121" style="mask-type:luminance" maskUnits="userSpaceOnUse" x="0" y="0" width="420" height="420">
<path d="M0.291656 0.291656H419.708V419.708H0.291656V0.291656Z" fill="white"/>
</mask>
<g mask="url(#mask0_1_121)">
<mask id="mask1_1_121" style="mask-type:luminance" maskUnits="userSpaceOnUse" x="0" y="0" width="420" height="420">
<path d="M210 419.708C154.01 419.708 101.292 397.917 61.7292 358.271C22.0833 318.708 0.291656 265.99 0.291656 210C0.291656 154.01 22.0833 101.292 61.7292 61.7292C101.292 22.0833 154.01 0.291656 210 0.291656C265.99 0.291656 318.708 22.0833 358.271 61.7292C397.917 101.375 419.708 154.01 419.708 210C419.708 265.99 397.917 318.708 358.271 358.271C318.708 397.917 265.99 419.708 210 419.708ZM210 12.8646C157.365 12.8646 107.828 33.3958 70.6146 70.6146C33.3958 107.828 12.8646 157.365 12.8646 210C12.8646 262.635 33.3958 312.172 70.6146 349.385C107.828 386.604 157.365 407.135 210 407.135C262.635 407.135 312.172 386.604 349.385 349.385C386.604 312.172 407.135 262.635 407.135 210C407.135 157.365 386.604 107.828 349.385 70.6146C312.172 33.3958 262.635 12.8646 210 12.8646Z" fill="white"/>
</mask>
<g mask="url(#mask1_1_121)">
<path d="M0.291656 0.291656H419.708V419.708H0.291656V0.291656Z" fill="#F15A31"/>
</g>
</g>
<mask id="mask2_1_121" style="mask-type:luminance" maskUnits="userSpaceOnUse" x="134" y="134" width="152" height="152">
<path d="M134.953 134.953H285.047V285.047H134.953V134.953Z" fill="white"/>
</mask>
<g mask="url(#mask2_1_121)">
<mask id="mask3_1_121" style="mask-type:luminance" maskUnits="userSpaceOnUse" x="134" y="134" width="152" height="152">
<path d="M210 285.047C189.964 285.047 171.094 277.25 156.938 263.063C142.75 248.906 134.953 230.036 134.953 210C134.953 189.964 142.75 171.094 156.938 156.938C171.094 142.75 189.964 134.953 210 134.953C230.036 134.953 248.906 142.75 263.063 156.938C277.25 171.125 285.047 189.964 285.047 210C285.047 230.036 277.25 248.906 263.063 263.063C248.906 277.25 230.036 285.047 210 285.047ZM210 139.453C191.161 139.453 173.438 146.802 160.12 160.12C146.802 173.438 139.453 191.161 139.453 210C139.453 228.839 146.802 246.563 160.12 259.88C173.438 273.198 191.161 280.547 210 280.547C228.839 280.547 246.563 273.198 259.88 259.88C273.198 246.563 280.547 228.839 280.547 210C280.547 191.161 273.198 173.438 259.88 160.12C246.563 146.802 228.839 139.453 210 139.453Z" fill="white"/>
</mask>
<g mask="url(#mask3_1_121)">
<path d="M134.953 134.953H285.047V285.047H134.953V134.953Z" fill="#F15A31"/>
</g>
</g>
<mask id="mask4_1_121" style="mask-type:luminance" maskUnits="userSpaceOnUse" x="157" y="161" width="107" height="98">
<path d="M157.333 161.016H263.891V258.604H157.333V161.016Z" fill="white"/>
</mask>
<g mask="url(#mask4_1_121)">
<path fill-rule="evenodd" clip-rule="evenodd" d="M175.01 225.161C175.927 224.75 176.495 223.818 177.391 223.417C178.094 223.104 178.953 223.083 179.661 222.854C180.557 222.563 181.271 222.063 181.849 221.495C183.37 220.005 183.885 217.896 184.542 215.995C185.594 212.943 187.448 207.729 184.182 205.156C183.063 208.953 183.943 209.635 181.891 210.854C180.776 211.521 179.464 211.156 177.818 210.927C175.698 210.63 173.078 210.286 170.146 209.792C167.693 209.375 164.969 209.141 161.995 209.51C156.792 210.307 156.927 213.031 158.547 215.677C165.531 213.641 171.849 213.042 177.021 214.88C171.688 215.859 166.464 217.021 161.583 218.781C162.193 219.479 162.49 220.276 162.88 220.74C163.156 221.063 163.542 221.323 164 221.563C169.469 218.271 174.5 217.76 179.25 219.031C175.266 219.641 171.234 221.031 167.167 222.958C167.333 223.047 167.5 223.135 167.661 223.234C169.083 224.094 169.974 225.693 171.667 225.776C172.76 225.833 173.891 225.656 175.01 225.161ZM247.417 211.948C247.448 213.474 247.427 215.005 247.313 216.542C249.641 218.438 251.547 219.792 252.755 221.922C253.365 222.99 253.776 224.234 253.698 225.385C253.599 226.865 252.891 228.26 253.125 229.708C253.328 230.927 254.224 232.042 254.87 233.156C255.375 234.021 255.688 234.906 255.682 235.682C255.661 237.109 254.63 238.698 253.474 240.245C252.635 241.375 251.672 242.479 251.234 243.495C250.865 244.354 251.427 244.802 251.479 245.521C251.552 246.568 251.135 247.807 250.063 248.604C249.385 249.104 248.651 249.521 247.849 249.844C247.646 249.385 247.542 248.797 247.51 248.109C247.448 246.823 247.953 245.208 248.13 243.5C248.359 241.38 248.26 239.125 248.052 237.214C247.958 236.385 247.599 235.729 247.464 234.901C246.984 232.068 248.88 232.224 245.375 226.135C244.161 230.198 242.5 233.448 240.547 236.089C238.339 239.068 235.87 241.453 233.141 243.172C230.74 244.693 228.109 245.651 225.625 246.615C217.182 249.885 207.365 248.865 196.349 244.073C193.51 247.563 190.177 250.453 186.964 253.302C182.589 256.516 179.063 258.448 176.75 258.547C175.188 258.615 174.005 258.339 173.734 256.354C177.818 254.203 182.188 253.62 185.021 251.349C187.432 249.417 189.115 247.094 189.828 244.245C186.911 246.401 183.932 248.333 180.844 249.807C178.922 250.724 176.797 251.922 174.703 252.693C175.026 252.156 175.344 251.63 175.547 251.125C175.828 250.432 175.87 249.651 175.927 248.906C182.375 246.589 187.151 243.828 189.938 240.536C187.807 241.411 185.599 241.984 183.599 242.583C181.948 243.078 180.448 243.615 178.922 243.807C179.37 242.922 179.276 241.62 179.49 240.474C179.672 239.5 180.188 238.661 180.766 238.109C181.938 236.995 184.828 237.703 186.167 236.823C185.182 235.911 184.255 234.938 182.844 234.776C181.396 234.604 179.797 234.927 177.896 235.313C176.385 235.542 175.677 234.625 176.948 233.526C183.094 229.672 180.266 228.193 181.922 225.526C185.016 218.193 187.313 211.943 190.906 207.385C193.484 204.109 196.198 201.13 199.25 198.979C202.401 196.76 205.911 195.417 209.609 194.833C215.531 193.906 220.677 196.214 224.349 199.349C228.292 202.719 231.615 208.266 230.714 216.62C230.005 223.188 225.635 227.359 220.573 229.672C216.109 231.714 209.807 233.917 203.245 231.036C196.542 228.094 195.516 222.661 196.245 219.26C197.276 214.443 205.406 206.552 212.609 207.068C218.505 207.49 220.917 211.922 220.594 214.052C220.25 216.323 217.057 220.13 207.297 220.042C210.505 219.068 212.958 218.109 214.651 217.167C218.37 215.094 218.729 212.354 214.797 211.156C210.255 209.771 206.521 211.74 203.948 213.599C200.068 216.406 198.453 220.734 198.589 222.682C198.693 224.25 200.26 226.99 203.328 228.719C205.865 230.151 209.432 230.885 214.052 229.682C220.906 227.901 225.036 224.302 226.88 220.474C228.422 217.266 228.234 213.854 227.896 211.615C227.005 205.813 220.766 199.333 209.432 199.177C203.938 199.099 199.682 203.005 196.104 206.495C192.411 210.089 189.964 214.911 187.693 220.526C186.609 223.188 186.391 226.13 187.458 229.599C188.557 233.161 191.078 237.104 193.583 241.208C196.818 243.693 197.484 242.802 199.536 242.974C200.495 243.052 200.969 243.74 201.859 244.042C202.901 244.396 204.354 244.365 205.417 244.365C206.75 244.365 208.089 244.359 209.271 244.021C210.375 243.698 211.328 243.047 212.49 242.865C216.917 242.182 221.729 244.146 225.5 242.891C227.057 242.375 228.641 241.182 229.865 239.76C230.88 238.589 231.557 237.354 232.568 236.755C233.146 236.406 234.021 236.438 234.984 236.354C236.479 236.224 238.109 235.844 238.505 234.995C238.875 234.198 239.177 232.938 238.844 231.776C238.307 229.917 237.578 227.844 238.438 226.573C238.781 226.063 239.469 225.479 240.302 225.177C241.885 224.604 243.88 224.411 244.234 223.156C244.51 222.172 244.313 220.719 243.344 219.313C242.406 217.964 242.151 216.271 242.688 215.297C243.521 213.776 246.458 212.938 247.417 211.948ZM255.417 183.13C255.797 183.068 255.844 182.771 255.531 182.625C255.25 182.49 254.88 182.385 254.651 182.635C254.526 182.771 254.438 183.078 254.594 183.182C254.823 183.328 255.146 183.172 255.417 183.13ZM259.99 189.578C260.188 189.526 260.417 189.536 260.599 189.62C260.906 189.75 260.953 190.125 260.63 190.344C260.448 190.464 260.156 190.349 259.974 190.224C259.667 190.016 259.641 189.677 259.99 189.578ZM235.026 191.818C236.385 194.563 239.229 196.328 240.458 198.62C241.469 200.495 241.089 202.307 241.813 203.865C242.156 204.609 242.521 205.313 242.885 205.953C243.536 207.083 242.984 209.036 243.615 209.776C244.536 210.849 246.604 210.458 247.203 210.453C247.698 208.938 246.823 207.036 247.469 206.089C248.688 204.313 249.979 202.469 251.557 200.901C250.833 200.359 251.104 199.016 250.495 198.438C249.229 197.229 247.38 196.464 246.229 195.396C245.208 194.458 244.854 193.219 244.177 192.135C243.698 191.359 242.563 191.005 242.214 190.214C241.729 190.422 241.26 190.604 240.891 190.792C240.026 191.224 239.469 191.583 238.698 191.703C237.828 191.833 236.714 191.703 235.026 191.818ZM254.573 198.62C254.833 198.526 255.089 198.427 255.333 198.245C255.547 198.083 255.75 197.911 255.938 197.729C255.219 193.922 255.448 190.958 256.802 189.01C257.604 187.865 258.797 187.068 260.422 186.661C261.271 186.448 262.349 186.099 263.359 186.302C263.641 185.286 263.708 184.396 263.151 183.641C262.583 182.875 261.51 182.807 260.542 182.682C259.042 183.625 257.875 184.901 256.464 185.464C255.922 185.677 255.375 185.849 254.823 185.974C252.302 186.542 249.573 186.307 246.974 185.286C246.776 185.385 246.589 185.49 246.406 185.599C245.745 185.995 245.255 186.792 244.854 187.63C244.641 188.068 244.589 188.536 244.255 188.922C244.229 188.948 244.208 188.974 244.182 189C244.63 189.693 244.974 190.417 245.333 191.12C245.797 192.026 246.057 193.182 246.844 193.922C247.599 194.63 248.917 195 250.036 195.823C250.901 196.464 251.359 197.74 252.167 198.26C252.88 198.719 253.953 198.443 254.573 198.62ZM259.104 182.302C258.552 182.031 258.026 181.682 257.469 181.417C256.729 181.063 255.948 180.854 255.089 180.922C254.51 180.964 253.958 181.089 253.417 181.271C252.328 181.646 251.964 182.646 250.906 183.365C250.823 183.422 250.734 183.479 250.646 183.536C251.802 184.682 253.083 185.146 254.484 184.922C255.849 184.708 257.938 183.771 259.104 182.302ZM258.443 194.693C258.547 194.583 258.651 194.474 258.76 194.375C259.844 193.349 261.292 192.938 261.802 191.953C262.052 191.474 262.354 191.036 262.443 190.521C262.563 189.865 262.443 189.13 262.62 188.583C262.729 188.229 262.849 187.885 262.958 187.552C261.63 186.703 258.745 188.365 258.141 189.5C257.453 190.786 257.677 192.755 258.443 194.693ZM215.193 214.161C211.552 212.672 206.938 215.109 204.745 216.672C203.135 217.813 201.542 219.708 201.604 221.792C201.646 223.13 202.339 224.661 203.646 226.135C205.667 228.406 208.234 228.667 210.281 228.667C212.76 228.672 215.052 227.708 217.339 226.708C219.26 225.865 221.974 224.365 223.839 222.391C225.031 221.125 226.135 219.531 226.224 217.932C226.474 213.536 225.318 210.068 223.125 207.344C221.068 204.781 217.391 202.401 213.432 202.052C206.411 201.438 200.641 204.094 196.917 207.948C193.734 211.245 190.073 216.505 191.938 222.672C193.531 227.958 195.781 232.177 199.906 234.792C203.547 237.099 208.464 238.818 214.708 237.943C220.469 237.135 225.068 233.896 228.76 229.859C230.76 227.672 232.458 225.073 233.839 222.047C234.849 219.839 235.813 217.427 236.349 214.729C236.63 213.292 236.755 212.016 237.047 210.891C238 207.214 239.349 204.932 238.885 201.635C238.344 197.839 234.563 194.375 233.422 190.385C231.958 189.339 230.464 188.401 228.932 187.599C229.234 187.234 229.411 186.839 229.5 186.417C229.615 185.88 229.224 185.182 228.635 184.75C228.318 184.516 227.911 184.589 227.573 184.286C227.135 183.891 226.75 183.146 226.516 182.714C226.198 182.125 226.641 181.589 226.661 180.969C226.693 180.036 226.375 179.042 225.974 178.354C225.167 176.984 223.479 176.667 221.875 175.849C221.063 175.432 220.099 174.708 219.625 174.031C219.089 173.266 218.646 172.323 218.589 171.885C217.609 171.401 216.224 171.26 214.734 171.406C213.151 171.563 211.438 172.01 209.953 171.635C209.266 171.464 208.5 170.984 208.057 170.365C207.719 169.896 207.698 169.307 207.281 168.943C206.656 168.391 205.635 168.313 204.74 168.391C202.615 168.573 200.375 169.151 198.047 170.307C198.573 170.5 199.135 170.359 199.698 170.542C200.563 170.818 200.839 171.443 201.729 171.76C203.495 172.385 205.865 172.74 207.318 173.391C208 173.698 207.974 174.38 208.432 174.833C209.109 175.5 210.224 175.984 211.109 176.594C211.615 176.943 212.302 177.219 212.99 177.385C214.297 177.708 215.714 177.823 216.594 178.542C217.302 179.13 217.328 179.979 217.677 180.906C218.026 181.833 218.698 182.849 219.297 183.531C211.359 181.651 202.021 183.484 195.771 187.635C190.917 190.859 187.172 196.031 184.891 203.75C186.646 203.005 187.839 202.146 188.703 201.24C190.073 199.786 190.417 198.141 190.964 196.703C191.453 195.432 192.135 194.333 193.276 193.448C195.802 191.5 198.865 190.563 201.76 189.427C203.021 188.938 204.182 187.411 205.422 187.125C206.385 186.906 207.479 187.203 208.505 187.354C209.531 187.5 210.49 187.5 211.599 187.401C212.464 187.323 213.651 187.073 214.771 186.667C216.214 186.146 217.62 185.474 218.964 185.714C219.969 185.891 220.703 186.589 221.563 187.188C222.818 188.063 224.146 188.88 225.396 188.781C226.401 188.703 227.323 188.484 228.109 188.052C232.391 195.807 234.698 203.24 233.807 210.172C233.927 216.208 232.401 221.042 229.589 224.932C226.089 229.786 220.854 234.073 213.797 235.625C209.333 236.604 205.214 234.766 201.891 232.672C198.958 230.823 195.615 228.354 194.807 224.198C193.526 217.578 196.875 213.099 199.969 209.99C203.823 206.115 209.229 203.453 216.521 205.75C221.99 207.469 223.391 211.594 223.385 214.849C223.38 218.651 221.068 223.271 215.245 225.615C212.766 226.609 210.344 226.203 208.635 225.833C205.578 225.177 204.089 223.172 204.083 221.948C204.078 220.042 207.135 216.339 215.193 214.161ZM206.708 222.146C206.354 226.813 220.792 225.479 221.385 215.589C217.589 221.057 213.557 223.589 206.708 222.146ZM240.385 205.292C237.75 225.01 228.656 234.922 221.26 238.083C212.052 242.021 191.698 240.823 189.792 220.714C186.745 225.75 189.63 233.474 194.208 237.594C195.734 238.964 198.208 239.01 199.698 239.656C201.438 240.411 203.188 241.922 205.042 242.188C210.167 242.927 215.479 241.073 218.797 240.396C220.25 240.094 222.193 241.125 224.026 240.677C225.859 240.229 227.583 238.307 229.349 237.031C231.005 235.833 233.839 234.536 235.198 232.51C236.74 230.214 236.771 227.109 237.995 224.594C238.568 223.422 240.625 222.651 241.089 221.328C241.859 219.099 241.25 216.526 241.031 213.724C240.823 211.083 241.052 208.245 240.385 205.292ZM187.536 210C188.005 206.313 189.172 203.224 190.771 200.656C192.01 198.672 192.365 196.052 194 194.661C195.635 193.271 198.552 193.104 200.339 192.24C202.125 191.375 203.922 189.901 205.609 189.495C207.099 189.135 208.505 189.792 209.74 189.734C212.036 189.635 214.969 187.474 217.958 188.167C219.464 188.51 220.708 190.719 222.281 191.104C224.063 191.536 226.443 191.896 227.839 193.177C231.01 196.089 232.469 202.292 232.484 208.849C227.745 196.781 218.391 192.646 211.021 192.75C203.417 192.854 194.432 198.042 187.536 210ZM247.74 251.224C257.359 244.906 252.25 247.359 253.818 242.401C254.302 240.854 256.552 240.76 256.891 239.271C257.234 237.755 257.875 236.641 257.938 235.068C258.021 232.943 256.87 230.651 256.318 228.339C255.927 226.688 256.271 225.031 255.651 223.385C255.036 221.745 254.365 220.161 253.531 218.547C253.276 218.052 253.01 217.552 252.719 217.047C252.219 216.167 251.661 215.266 251.031 214.333C252.573 214.682 253.911 215.255 255.057 215.995C256.75 217.083 257.833 218.88 258.948 220.646C259.995 222.307 261.115 223.911 261.521 225.771C262.271 229.198 261.724 232.563 261.385 235.771C261.104 238.417 261.188 241.177 260.323 243.911C259.771 245.667 258.557 247.318 257.49 249.214C256.156 251.583 254.771 253.448 252.26 256.188C251.948 256.828 251.151 257.807 250.734 257.839C250.135 257.88 249.859 257.323 249.474 256.766C249.073 256.188 248.198 255.51 247.943 254.708C247.516 253.375 247.818 251.875 247.74 251.224ZM233.422 187.318C232.177 185.63 229.078 184.417 228.068 182.781C227.458 181.802 228.911 180.365 228.297 179.438C226.922 177.37 225.641 174.906 224.177 173.219C223.536 172.484 222.292 172.557 221.568 172.052C220.646 171.401 220.214 170.224 219.109 169.714C216.938 168.703 213.438 169.635 210.802 169.151C209.005 168.823 208.167 166.87 206.229 166.974C203.073 167.135 199.771 167.979 196.474 169.818C193.974 169.375 193.484 166.922 190.542 165.719C188.995 164.589 189.698 163.401 193.104 162.141C199.219 161.068 204.714 161.031 209.536 161.74C214.76 162.5 218.354 165.234 221.953 167.333C226.036 169.708 229.896 171.583 231.74 174.615C233.844 178.068 235.75 183.172 233.422 187.318Z" fill="#F15A31"/>
</g>
</svg>
